#!OML:ASF H:\Punching\Project 1\Capture day 1\Session 1\female.ASF
:FULLY-SPECIFIED
:DEGREES
1837
root 1.69312 15.324 9.05576 11.7179 -34.1919 -1.03803
lowerback -0.976626 -4.51008 1.6964
upperback -6.39877 -5.91588 3.46947
thorax -5.89988 -2.9655 2.90769
lowerneck -1.25803 11.9457 20.1507
upperneck 26.3759 18.2274 -14.0892
head 12.1287 9.03641 -6.30506
rclavicle 3.68497e-014 1.90833e-014
rhumerus 1.74148 32.3282 -75.4055
rradius 126.224
rwrist -2.60039
rhand -35.9155 3.44236
rfingers 7.12502
rthumb -9.0283 -26.3444
lclavicle 3.68497e-014 1.90833e-014
lhumerus 14.5573 -3.23968 48.0837
lradius 124.377
lwrist -0.319823
lhand -30.1077 18.4039
lfingers 7.12502
lthumb -3.42146 48.3562
rfemur -7.40131 12.8002 4.28126
rtibia 16.9952
rfoot -19.2334 -7.23389
rtoes -16.7161
lfemur -28.4656 8.09581 -9.07374
ltibia 33.3516
lfoot -10.8863 16.2683
ltoes -1.67681
1838
root 1.77732 15.3141 9.14046 11.6892 -34.4686 -0.975751
lowerback -0.925324 -4.66207 1.36369
upperback -6.29168 -6.12373 3.59116
thorax -5.75991 -3.05015 3.21946
lowerneck -1.28165 12.029 20.3148
upperneck 26.4998 18.3557 -14.1679
head 12.2416 9.09922 -6.33945
rclavicle 6.5922e-014 -3.18055e-015
rhumerus 1.55417 32.5048 -75.7526
rradius 126.349
rwrist -2.21536
rhand -35.6726 3.35334
rfingers 7.12502
rthumb -8.79392 -26.4434
lclavicle 6.5922e-014 -3.18055e-015
lhumerus 16.3201 -3.82498 48.8824
lradius 122.848
lwrist -0.618956
lhand -30.3751 18.0575
lfingers 7.12502
lthumb -3.67967 48.0055
rfemur -7.27668 12.7223 3.75961
rtibia 16.7216
rfoot -18.8987 -7.33506
rtoes -16.7719
lfemur -28.7539 8.43351 -9.69151
ltibia 34.1521
lfoot -11.4239 16.1335
ltoes -2.03133
1839
root 1.85853 15.3046 9.22082 11.7772 -34.5903 -1.04042
lowerback -0.927922 -4.81454 1.14142
upperback -6.1909 -6.33047 3.73276
thorax -5.60315 -3.14063 3.48596
lowerneck -1.34291 12.0833 20.4503
upperneck 26.6508 18.4288 -14.2039
head 12.3533 9.13621 -6.36156
rclavicle -7.11028e-014 0
rhumerus 1.3154 32.6327 -76.1173
rradius 126.472
rwrist -1.8661
rhand -35.5224 3.33874
rfingers 7.12502
rthumb -8.6489 -26.4641
lclavicle -7.11028e-014 0
lhumerus 18.2151 -4.54097 49.7677
lradius 121.148
lwrist -0.875985
lhand -30.7196 17.78
lfingers 7.12502
lthumb -4.01234 47.722
rfemur -7.12983 12.6166 3.40481
rtibia 16.4043
rfoot -18.5027 -7.5032
rtoes -16.8229
lfemur -29.207 8.68702 -10.1665
ltibia 35.0483
lfoot -11.925 15.9878
ltoes -2.30049
1840
root 1.93661 15.2956 9.29654 11.9768 -34.5517 -1.2227
lowerback -0.975787 -4.96618 1.02272
upperback -6.09782 -6.53433 3.89046
thorax -5.43655 -3.23541 3.70758
lowerneck -1.45261 12.1092 20.5626
upperneck 26.8327 18.4438 -14.1927
head 12.4666 9.14667 -6.37043
rclavicle 1.00175e-013 2.38542e-015
rhumerus 1.03212 32.7177 -76.5113
rradius 126.582
rwrist -1.53576
rhand -35.5168 3.43397
rfingers 7.12502
rthumb -8.64356 -26.3691
lclavicle 1.00175e-013 2.38542e-015
lhumerus 20.2471 -5.41759 50.735
lradius 119.263
lwrist -1.10196
lhand -31.2029 17.5836
lfingers 7.12502
lthumb -4.47907 47.5162
rfemur -6.96796 12.4678 3.21521
rtibia 16.0692
rfoot -18.038 -7.74908
rtoes -16.9563
lfemur -29.8099 8.84361 -10.5056
ltibia 36.0217
lfoot -12.3957 15.8298
ltoes -2.49037
1841
root 2.01145 15.2872 9.36763 12.2544 -34.3597 -1.47751
lowerback -1.05539 -5.11885 0.966562
upperback -6.01979 -6.73866 4.05994
thorax -5.27202 -3.33382 3.9041
lowerneck -1.59429 12.1059 20.6402
upperneck 27.0452 18.4014 -14.1283
head 12.5762 9.13125 -6.36291
rclavicle 2.8948e-015 -1.98785e-014
rhumerus 0.71133 32.7797 -76.9376
rradius 126.684
rwrist -1.23023
rhand -35.7732 3.60851
rfingers 7.12502
rthumb -8.89096 -26.1842
lclavicle 2.8948e-015 -1.98785e-014
lhumerus 22.3836 -6.46992 51.7902
lradius 117.17
lwrist -1.2951
lhand -31.8957 17.4862
lfingers 7.12502
lthumb -5.14806 47.4037
rfemur -6.80293 12.2575 3.1547
rtibia 15.7659
rfoot -17.5316 -8.05567
rtoes -17.1485
lfemur -30.5193 8.89385 -10.7483
ltibia 37.0214
lfoot -12.8307 15.6629
ltoes -2.64612
1842
root 2.083 15.2795 9.43428 12.5714 -34.0276 -1.76384
lowerback -1.15321 -5.26907 0.944676
upperback -5.95899 -6.93945 4.23274
thorax -5.11789 -3.4323 4.08365
lowerneck -1.75369 12.0712 20.673
upperneck 27.2883 18.3006 -14.0078
head 12.6772 9.08964 -6.3374
rclavicle -4.15274e-015 1.11319e-014
rhumerus 0.35953 32.8416 -77.4067
rradius 126.763
rwrist -0.915653
rhand -36.1506 3.79576
rfingers 7.12502
rthumb -9.2551 -25.9811
lclavicle -4.15274e-015 1.11319e-014
lhumerus 24.6046 -7.68992 52.9341
lradius 114.83
lwrist -1.43775
lhand -32.83 17.3805
lfingers 7.12502
lthumb -6.05013 47.2742
rfemur -6.64063 11.9638 3.18937
rtibia 15.5381
rfoot -17.0109 -8.40497
rtoes -17.3919
lfemur -31.2761 8.83235 -10.9285
ltibia 37.9843
lfoot -13.2254 15.4909
ltoes -2.7905
1843
root 2.15134 15.2731 9.49664 12.8831 -33.5808 -2.02642
lowerback -1.24398 -5.43063 0.889595
upperback -5.92101 -7.15549 4.41754
thorax -4.98419 -3.53673 4.29555
lowerneck -1.90785 12.0175 20.6479
upperneck 27.5601 18.1701 -13.8483
head 12.7713 9.03306 -6.29454
rclavicle -2.86592e-014 -6.44062e-014
rhumerus 0.0162823 32.9653 -77.9159
rradius 126.817
rwrist -0.629002
rhand -36.5891 3.99279
rfingers 7.12502
rthumb -9.67824 -25.7649
lclavicle -2.86592e-014 -6.44062e-014
lhumerus 26.8434 -9.02634 54.1648
lradius 112.214
lwrist -1.54564
lhand -33.994 17.2154
lfingers 7.12502
lthumb -7.17375 47.0738
rfemur -6.48491 11.6043 3.26821
rtibia 15.4118
rfoot -16.4957 -8.80922
rtoes -17.7068
lfemur -32.0282 8.67125 -11.0975
ltibia 38.8546
lfoot -13.567 15.314
ltoes -2.93961
1844
root 2.2165 15.2682 9.55498 13.1676 -33.0445 -2.25006
lowerback -1.31403 -5.58895 0.79459
upperback -5.9008 -7.36723 4.59957
thorax -4.87496 -3.63723 4.52903
lowerneck -2.0689 11.9409 20.5821
upperneck 27.8662 18.0011 -13.6528
head 12.8643 8.95865 -6.23917
rclavicle -1.043e-014 -2.22639e-014
rhumerus -0.302047 33.1206 -78.458
rradius 126.853
rwrist -0.34656
rhand -37.0576 4.11913
rfingers 7.12502
rthumb -10.1302 -25.617
lclavicle -1.043e-014 -2.22639e-014
lhumerus 29.1036 -10.4667 55.4808
lradius 109.287
lwrist -1.62388
lhand -35.316 16.8515
lfingers 7.12502
lthumb -8.44974 46.6625
rfemur -6.32934 11.2018 3.37321
rtibia 15.3841
rfoot -16.0095 -9.26137
rtoes -18.0188
lfemur -32.7351 8.42508 -11.2697
ltibia 39.6
lfoot -13.8531 15.1379
ltoes -3.08046
1845
root 2.27858 15.2647 9.60934 13.4128 -32.446 -2.43176
lowerback -1.36569 -5.73126 0.664888
upperback -5.87913 -7.55808 4.76375
thorax -4.77201 -3.72622 4.76372
lowerneck -2.26445 11.8442 20.493
upperneck 28.2014 17.7928 -13.4269
head 12.9628 8.86608 -6.17436
rclavicle -5.45788e-014 -2.38542e-015
rhumerus -0.555716 33.2862 -79.0355
rradius 126.871
rwrist -0.0894993
rhand -37.505 4.19234
rfingers 7.12502
rthumb -10.5618 -25.5223
lclavicle -5.45788e-014 -2.38542e-015
lhumerus 31.397 -11.9844 56.856
lradius 106.048
lwrist -1.70943
lhand -36.6541 16.2685
lfingers 7.12502
lthumb -9.7409 46.0232
rfemur -6.16871 10.7927 3.49408
rtibia 15.4394
rfoot -15.5676 -9.762
rtoes -18.2798
lfemur -33.3745 8.11124 -11.4494
ltibia 40.2134
lfoot -14.0904 14.9711
ltoes -3.17915
1846
root 2.33766 15.2625 9.65995 13.6236 -31.8039 -2.58729
lowerback -1.39616 -5.84622 0.517843
upperback -5.85421 -7.71248 4.90492
thorax -4.67937 -3.79665 4.98518
lowerneck -2.49893 11.7238 20.3925
upperneck 28.571 17.5371 -13.1692
head 13.0701 8.75321 -6.10272
rclavicle 9.88395e-014 -5.56597e-015
rhumerus -0.74231 33.4425 -79.6456
rradius 126.88
rwrist 0.140058
rhand -37.8805 4.19123
rfingers 7.12502
rthumb -10.924 -25.5046
lclavicle 9.88395e-014 -5.56597e-015
lhumerus 33.7041 -13.5754 58.2828
lradius 102.514
lwrist -1.87442
lhand -37.8171 15.4552
lfingers 7.12502
lthumb -10.8629 45.1543
rfemur -5.99468 10.4036 3.63838
rtibia 15.5443
rfoot -15.1675 -10.3072
rtoes -18.4616
lfemur -33.944 7.74494 -11.6234
ltibia 40.7101
lfoot -14.289 14.8175
ltoes -3.21119
1847
root 2.39363 15.261 9.70695 13.8076 -31.1316 -2.73322
lowerback -1.4057 -5.92737 0.369935
upperback -5.8229 -7.82154 5.0234
thorax -4.59702 -3.84469 5.18482
lowerneck -2.78094 11.581 20.2812
upperneck 28.9754 17.233 -12.8762
head 13.1885 8.62002 -6.02249
rclavicle -9.70193e-014 1.19271e-014
rhumerus -0.853575 33.5761 -80.2706
rradius 126.887
rwrist 0.344584
rhand -38.1606 4.11667
rfingers 7.12502
rthumb -11.1942 -25.5647
lclavicle -9.70193e-014 1.19271e-014
lhumerus 35.9959 -15.2303 59.7339
lradius 98.7399
lwrist -2.18626
lhand -38.6431 14.5631
lfingers 7.12502
lthumb -11.6595 44.2187
rfemur -5.80331 10.057 3.81484
rtibia 15.6735
rfoot -14.8101 -10.8919
rtoes -18.5096
lfemur -34.4502 7.34118 -11.7762
ltibia 41.1156
lfoot -14.4604 14.6727
ltoes -3.17522
1848
root 2.44634 15.2601 9.75018 13.9829 -30.4482 -2.89823
lowerback -1.38159 -5.98836 0.225267
upperback -5.8007 -7.90222 5.15366
thorax -4.54364 -3.87802 5.39974
lowerneck -3.06038 11.4286 20.1244
upperneck 29.4015 16.9152 -12.5607
head 13.3077 8.47947 -5.92926
rclavicle 1.00759e-014 0
rhumerus -0.893736 33.7561 -80.8905
rradius 126.885
rwrist 0.533903
rhand -38.3436 3.96094
rfingers 7.12502
rthumb -11.3707 -25.7108
lclavicle 1.00759e-014 0
lhumerus 38.1677 -16.897 61.2114
lradius 94.797
lwrist -2.73487
lhand -38.99 13.6876
lfingers 7.12502
lthumb -11.994 43.3239
rfemur -5.60315 9.7732 4.04174
rtibia 15.8034
rfoot -14.4808 -11.5127
rtoes -18.3954
lfemur -34.9074 6.92152 -11.8798
ltibia 41.4583
lfoot -14.6127 14.533
ltoes -3.07911
1849
root 2.49615 15.2596 9.79008 14.1464 -29.7525 -3.06866
lowerback -1.32235 -6.03838 0.0779004
upperback -5.7915 -7.9669 5.29805
thorax -4.52228 -3.90238 5.63662
lowerneck -3.338 11.2752 19.9133
upperneck 29.8453 16.5967 -12.2211
head 13.4281 8.33647 -5.81798
rclavicle -5.46534e-014 3.57812e-014
rhumerus -0.855595 33.9905 -81.4869
rradius 126.867
rwrist 0.71021
rhand -38.4552 3.79418
rfingers 7.12502
rthumb -11.4783 -25.8716
lclavicle -5.46534e-014 3.57812e-014
lhumerus 40.1782 -18.575 62.6612
lradius 90.794
lwrist -3.52927
lhand -38.8608 13.1083
lfingers 7.12502
lthumb -11.8694 42.7518
rfemur -5.3951 9.52811 4.30005
rtibia 15.9261
rfoot -14.1741 -12.1608
rtoes -18.1038
lfemur -35.3328 6.49315 -11.9514
ltibia 41.7617
lfoot -14.7455 14.3839
ltoes -2.95024
